<svg width="41" height="41" viewBox="0 0 41 41" fill="none" xmlns="http://www.w3.org/2000/svg">
<path d="M20.5 33.2882C27.7714 33.2882 33.7944 27.2781 33.7944 19.9938C33.7944 12.7224 27.7714 6.6994 20.4871 6.6994C13.2158 6.6994 7.2056 12.7224 7.2056 19.9938C7.2056 27.2781 13.2286 33.2882 20.5 33.2882ZM20.5 30.6757C14.5799 30.6757 9.83102 25.9139 9.83102 19.9938C9.83102 14.0737 14.5671 9.32482 20.4871 9.32482C26.4072 9.32482 31.169 14.0737 31.1819 19.9938C31.1819 25.9139 26.4201 30.6757 20.5 30.6757ZM14.4899 16.9952C15.1076 16.9952 15.6224 16.4804 15.6224 15.8626C15.6224 15.232 15.1205 14.7301 14.4899 14.7301C13.8592 14.7301 13.3573 15.232 13.3573 15.8626C13.3573 16.4932 13.8592 16.9952 14.4899 16.9952ZM17.5914 16.6863H26.7804C27.2437 16.6863 27.6041 16.3259 27.6041 15.8626C27.6041 15.3993 27.2437 15.039 26.7804 15.039H17.5914C17.1281 15.039 16.7678 15.3993 16.7678 15.8626C16.7678 16.3131 17.141 16.6863 17.5914 16.6863ZM14.4899 21.1392C15.1076 21.1392 15.6224 20.6115 15.6224 19.9938C15.6224 19.3761 15.1076 18.8613 14.4899 18.8613C13.8592 18.8613 13.3573 19.3761 13.3573 19.9938C13.3573 20.6244 13.8592 21.1392 14.4899 21.1392ZM17.5914 20.8175H26.7804C27.2437 20.8175 27.6041 20.47 27.6041 19.9938C27.6041 19.5305 27.2437 19.183 26.7804 19.183H17.5914C17.141 19.183 16.7678 19.5434 16.7678 19.9938C16.7678 20.4571 17.141 20.8175 17.5914 20.8175ZM14.4899 25.2704C15.1205 25.2704 15.6224 24.7685 15.6224 24.1378C15.6224 23.5201 15.1076 23.0053 14.4899 23.0053C13.8592 23.0053 13.3573 23.5072 13.3573 24.1378C13.3573 24.7685 13.8592 25.2704 14.4899 25.2704ZM17.5914 24.9615H26.7804C27.2437 24.9615 27.6041 24.6012 27.6041 24.1378C27.6041 23.6745 27.2437 23.3142 26.7804 23.3142H17.5914C17.141 23.3142 16.7678 23.6874 16.7678 24.1378C16.7678 24.6012 17.1281 24.9615 17.5914 24.9615Z" fill="#5B5D61"/>
</svg>
